<svg width="1537" height="116" viewBox="0 0 1537 116" fill="none" xmlns="http://www.w3.org/2000/svg">
<g clip-path="url(#clip0_2_10)">
<path d="M1559.72 60.2657C1554.48 71.2419 1475 92.2046 1180.81 103.724C864.848 116.097 503.286 130.397 362 136H1559.72V60.2657Z" fill="#17FFB2"/>
<path d="M1559.72 60.2657C1554.48 71.2419 1475 92.2046 1180.81 103.724C864.848 116.097 503.286 130.397 362 136H1559.72V60.2657ZM1559.72 60.2657V58C1560.09 58.6953 1560.1 59.4531 1559.72 60.2657Z" stroke="black"/>
<path d="M0.210633 85.9005C4.09869 90.2628 63.076 98.5941 281.383 103.172C515.851 108.09 784.156 113.773 889 116H0.210633V85.9005Z" fill="#17FFB2"/>
</g>
<defs>
<clipPath id="clip0_2_10">
<rect width="1537" height="116" fill="white"/>
</clipPath>
</defs>
</svg>
